<svg width="18" height="18" viewBox="0 0 18 18" fill="none" xmlns="http://www.w3.org/2000/svg">
<path d="M13.5523 7.74008C13.4098 7.74008 13.2673 7.68758 13.1548 7.57508L8.99984 3.42008L4.84484 7.57508C4.62734 7.79258 4.26734 7.79258 4.04984 7.57508C3.83234 7.35758 3.83234 6.99758 4.04984 6.78008L8.60234 2.22758C8.81984 2.01008 9.17984 2.01008 9.39734 2.22758L13.9498 6.78008C14.1673 6.99758 14.1673 7.35758 13.9498 7.57508C13.8448 7.68758 13.6948 7.74008 13.5523 7.74008Z" />
<path d="M9 15.9379C8.6925 15.9379 8.4375 15.6829 8.4375 15.3754V2.75293C8.4375 2.44543 8.6925 2.19043 9 2.19043C9.3075 2.19043 9.5625 2.44543 9.5625 2.75293V15.3754C9.5625 15.6829 9.3075 15.9379 9 15.9379Z" />
</svg>