<svg width="20" height="20" viewBox="0 0 20 20" fill="none" xmlns="http://www.w3.org/2000/svg">
<path d="M5.0013 14.9998L2.73047 17.2707C2.53602 17.4651 2.31033 17.5091 2.05339 17.4028C1.79644 17.2965 1.66797 17.1066 1.66797 16.8332V2.9165C1.66797 2.58317 1.79297 2.2915 2.04297 2.0415C2.29297 1.7915 2.58464 1.6665 2.91797 1.6665H17.0846C17.418 1.6665 17.7096 1.7915 17.9596 2.0415C18.2096 2.2915 18.3346 2.58317 18.3346 2.9165V13.7498C18.3346 14.0832 18.2096 14.3748 17.9596 14.6248C17.7096 14.8748 17.418 14.9998 17.0846 14.9998H5.0013ZM4.45964 13.7498H17.0846V2.9165H2.91797V15.4165L4.45964 13.7498ZM5.6263 11.6873H10.8971C11.0742 11.6873 11.2227 11.627 11.3426 11.5065C11.4623 11.3861 11.5221 11.2368 11.5221 11.0586C11.5221 10.8805 11.4623 10.7325 11.3426 10.6144C11.2227 10.4964 11.0742 10.4373 10.8971 10.4373H5.6263C5.44922 10.4373 5.3008 10.4976 5.18109 10.6182C5.06122 10.7386 5.0013 10.8879 5.0013 11.0661C5.0013 11.2441 5.06122 11.3922 5.18109 11.5103C5.3008 11.6283 5.44922 11.6873 5.6263 11.6873ZM5.6263 8.979H14.3763C14.5534 8.979 14.7018 8.91871 14.8217 8.79817C14.9414 8.67775 15.0013 8.52846 15.0013 8.35025C15.0013 8.17221 14.9414 8.02413 14.8217 7.90609C14.7018 7.78805 14.5534 7.729 14.3763 7.729H5.6263C5.44922 7.729 5.3008 7.7893 5.18109 7.90984C5.06122 8.03025 5.0013 8.17955 5.0013 8.35775C5.0013 8.5358 5.06122 8.68388 5.18109 8.80192C5.3008 8.91996 5.44922 8.979 5.6263 8.979ZM5.6263 6.27067H14.3763C14.5534 6.27067 14.7018 6.21038 14.8217 6.08984C14.9414 5.96942 15.0013 5.82013 15.0013 5.64192C15.0013 5.46388 14.9414 5.3158 14.8217 5.19775C14.7018 5.07971 14.5534 5.02067 14.3763 5.02067H5.6263C5.44922 5.02067 5.3008 5.08096 5.18109 5.2015C5.06122 5.32192 5.0013 5.47121 5.0013 5.64942C5.0013 5.82746 5.06122 5.97555 5.18109 6.09359C5.3008 6.21163 5.44922 6.27067 5.6263 6.27067Z"/>
</svg>
