<svg width="20" height="20" viewBox="0 0 20 20" fill="none" xmlns="http://www.w3.org/2000/svg">
    <path d="M11.2487 3.33301C11.7487 4.68427 12.8141 5.74966 14.1654 6.24967C12.8141 6.74969 11.7487 7.81507 11.2487 9.16634C10.7487 7.81507 9.68328 6.74969 8.33203 6.24967C9.68328 5.74966 10.7487 4.68427 11.2487 3.33301Z" stroke="currentColor" stroke-linecap="round" stroke-linejoin="round" />
    <path d="M15.0013 8.81666C15.5271 9.31999 15.7982 9.66033 15.8291 9.99074C15.8604 10.3238 15.7569 10.6555 15.5421 10.9107C15.2291 11.2824 14.4791 11.3731 12.9794 11.5542C12.3476 11.6306 12.0317 11.6687 11.8407 11.8368C11.7079 11.9537 11.616 12.1104 11.5784 12.284C11.5244 12.5336 11.6436 12.8307 11.8819 13.4249L13.1175 16.5052C13.2602 16.861 13.3316 17.039 13.3305 17.2027C13.329 17.4235 13.2401 17.6344 13.0835 17.7888C12.9672 17.9034 12.7906 17.9753 12.4373 18.1191C12.0841 18.2628 11.9074 18.3347 11.7447 18.3337C11.5256 18.3322 11.3161 18.2426 11.1629 18.0849C11.0491 17.9678 10.9777 17.7899 10.835 17.434L9.59938 14.3537C9.36105 13.7596 9.24188 13.4624 9.03088 13.3207C8.88422 13.2222 8.70988 13.1737 8.5338 13.1826C8.28046 13.1953 8.02692 13.3889 7.51983 13.776C6.31599 14.6951 5.71407 15.1546 5.23251 15.1061C4.90201 15.0729 4.59881 14.9067 4.39156 14.6453C4.08959 14.2644 4.14563 13.5057 4.25773 11.9884L4.72823 5.55188C4.87644 3.32015 4.95531 2.13263 5.87469 1.75848C6.59229 1.46646 7.2833 1.88917 8.33463 2.80285" stroke="currentColor" stroke-linecap="round" stroke-linejoin="round" />
    <path d="M14.7917 1.66699C14.9702 2.14958 15.3507 2.53008 15.8333 2.70866C15.3507 2.88723 14.9702 3.26773 14.7917 3.75033C14.6131 3.26773 14.2326 2.88723 13.75 2.70866C14.2326 2.53008 14.6131 2.14958 14.7917 1.66699Z" stroke="currentColor" stroke-linecap="round" stroke-linejoin="round" />
</svg>
