<svg width="20" height="20" viewBox="42 144 16 20" fill="none" xmlns="http://www.w3.org/2000/svg">
    <path d="M50.0081 159.208C50.3533 159.208 50.6331 159.488 50.6331 159.833C50.6331 160.178 50.3533 160.458 50.0081 160.458H50C49.6548 160.458 49.375 160.178 49.375 159.833C49.375 159.488 49.6548 159.208 50 159.208H50.0081Z" fill="currentColor"/>
    <path d="M54.7943 149.834C54.7943 148.834 54.7928 148.147 54.7235 147.631C54.6565 147.133 54.5366 146.889 54.367 146.719C54.1974 146.55 53.9534 146.43 53.4556 146.363C52.9396 146.293 52.2524 146.292 51.2526 146.292H48.7526C47.7528 146.292 47.0656 146.293 46.5496 146.363C46.0518 146.43 45.8078 146.55 45.6382 146.719C45.4686 146.889 45.3487 147.133 45.2817 147.631C45.2124 148.147 45.2109 148.834 45.2109 149.834V158.167C45.2109 159.167 45.2124 159.854 45.2817 160.37C45.3487 160.868 45.4686 161.112 45.6382 161.281C45.8078 161.451 46.0518 161.571 46.5496 161.638C47.0656 161.707 47.7528 161.709 48.7526 161.709H51.2526C52.2524 161.709 52.9396 161.707 53.4556 161.638C53.9534 161.571 54.1974 161.451 54.367 161.281C54.5366 161.112 54.6565 160.868 54.7235 160.37C54.7928 159.854 54.7943 159.167 54.7943 158.167V149.834ZM56.0443 158.167C56.0443 159.131 56.0452 159.917 55.9621 160.536C55.8765 161.173 55.6914 161.725 55.2508 162.165C54.8102 162.606 54.2582 162.791 53.6216 162.876C53.003 162.96 52.2169 162.959 51.2526 162.959H48.7526C47.7883 162.959 47.0022 162.96 46.3836 162.876C45.747 162.791 45.195 162.606 44.7544 162.165C44.3138 161.725 44.1287 161.173 44.0431 160.536C43.96 159.917 43.9609 159.131 43.9609 158.167V149.834C43.9609 148.869 43.96 148.083 44.0431 147.465C44.1287 146.828 44.3138 146.276 44.7544 145.835C45.195 145.395 45.747 145.21 46.3836 145.124C47.0022 145.041 47.7883 145.042 48.7526 145.042H51.2526C52.2169 145.042 53.003 145.041 53.6216 145.124C54.2582 145.21 54.8102 145.395 55.2508 145.835C55.6914 146.276 55.8765 146.828 55.9621 147.465C56.0452 148.083 56.0443 148.869 56.0443 149.834V158.167Z" fill="currentColor"/>
</svg>
