<svg width="18" height="18" viewBox="0 0 18 18" fill="none" xmlns="http://www.w3.org/2000/svg">
<path d="M18 9C18 13.9706 13.9706 18 9 18C4.02944 18 0 13.9706 0 9C0 4.02944 4.02944 0 9 0C13.9706 0 18 4.02944 18 9ZM2.65515 9C2.65515 12.5042 5.49584 15.3449 9 15.3449C12.5042 15.3449 15.3449 12.5042 15.3449 9C15.3449 5.49584 12.5042 2.65515 9 2.65515C5.49584 2.65515 2.65515 5.49584 2.65515 9Z" fill="#181E1C" fill-opacity="0.4"/>
<path d="M16.6725 9C17.4057 9 18.01 8.4025 17.9023 7.6773C17.7943 6.95042 17.5974 6.23785 17.3149 5.55585C16.8626 4.46392 16.1997 3.47177 15.364 2.63604C14.5282 1.80031 13.5361 1.13738 12.4442 0.685084C11.7622 0.402592 11.0496 0.205727 10.3227 0.0977266C9.5975 -0.0100237 9 0.594342 9 1.3275V1.3275C9 2.06066 9.60067 2.64109 10.3178 2.79337C10.6968 2.87383 11.0685 2.98902 11.4281 3.13798C12.1979 3.45685 12.8974 3.92422 13.4866 4.51341C14.0758 5.1026 14.5431 5.80206 14.862 6.57187C15.011 6.93151 15.1262 7.3032 15.2066 7.68216C15.3589 8.39933 15.9393 9 16.6725 9V9Z" fill="#181E1C"/>
</svg>
