<svg width="128" height="128" viewBox="0 0 128 128" fill="none" xmlns="http://www.w3.org/2000/svg">
<path d="M106.332 112C95.05 121.957 80.2308 128 64 128C47.7692 128 32.95 121.957 21.668 112H106.332ZM23 92H6.43555C2.31393 83.5423 0 74.0415 0 64C0 53.9585 2.31393 44.4577 6.43555 36H23V92ZM85 92H42V36H85V92ZM121.564 36C125.686 44.4577 128 53.9585 128 64C128 74.0415 125.686 83.5423 121.564 92H106V36H121.564ZM64 0C80.2308 0 95.05 6.04253 106.332 16H21.668C32.95 6.04253 47.7692 0 64 0Z" fill="currentColor"/>
</svg>
