<svg width="22" height="22" viewBox="0 0 22 22" fill="none" xmlns="http://www.w3.org/2000/svg">
<path d="M13.0625 10.5877C13.3833 10.5877 13.6431 10.4883 13.8417 10.2897C14.0403 10.0912 14.1396 9.83141 14.1396 9.51058V9.28141L14.3688 9.35016C14.7507 9.4724 15.0677 9.50292 15.3198 9.44183C15.5719 9.38073 15.759 9.24323 15.8813 9.02933C16.0035 8.81543 16.0531 8.55573 16.0302 8.25016C16.0073 7.94459 15.8202 7.70782 15.4688 7.53975L15.2167 7.42516L15.4688 7.28766C15.8202 7.10433 16.0073 6.86751 16.0302 6.57725C16.0531 6.28698 16.0035 6.0349 15.8813 5.821C15.759 5.60709 15.5681 5.46959 15.3083 5.4085C15.0486 5.3474 14.7354 5.37793 14.3688 5.50016L14.1396 5.56891V5.33975C14.1396 5.01891 14.0403 4.75918 13.8417 4.56058C13.6431 4.36197 13.3833 4.26266 13.0625 4.26266C12.7417 4.26266 12.4781 4.36197 12.2719 4.56058C12.0656 4.75918 11.9625 5.01891 11.9625 5.33975V5.56891L11.7333 5.50016C11.3514 5.37793 11.0382 5.3474 10.7937 5.4085C10.5493 5.46959 10.3583 5.60709 10.2208 5.821C10.0833 6.0349 10.0298 6.28698 10.0604 6.57725C10.091 6.86751 10.2819 7.10433 10.6333 7.28766L10.8854 7.42516L10.6333 7.53975C10.2819 7.70782 10.0948 7.94459 10.0719 8.25016C10.049 8.55573 10.0986 8.81543 10.2208 9.02933C10.3431 9.24323 10.534 9.38073 10.7937 9.44183C11.0535 9.50292 11.3667 9.4724 11.7333 9.35016L11.9625 9.28141V9.51058C11.9625 9.83141 12.0656 10.0912 12.2719 10.2897C12.4781 10.4883 12.7417 10.5877 13.0625 10.5877ZM13.0625 8.50225C12.7569 8.50225 12.501 8.39912 12.2948 8.19287C12.0885 7.98662 11.9854 7.73073 11.9854 7.42516C11.9854 7.11959 12.0885 6.8637 12.2948 6.65745C12.501 6.4512 12.7569 6.34808 13.0625 6.34808C13.3681 6.34808 13.624 6.4512 13.8302 6.65745C14.0365 6.8637 14.1396 7.11959 14.1396 7.42516C14.1396 7.73073 14.0365 7.98662 13.8302 8.19287C13.624 8.39912 13.3681 8.50225 13.0625 8.50225ZM7.31042 16.0877C6.94375 16.0877 6.62292 15.9502 6.34792 15.6752C6.07292 15.4002 5.93542 15.0793 5.93542 14.7127V3.2085C5.93542 2.84183 6.07292 2.521 6.34792 2.246C6.62292 1.971 6.94375 1.8335 7.31042 1.8335H18.8146C19.1812 1.8335 19.5021 1.971 19.7771 2.246C20.0521 2.521 20.1896 2.84183 20.1896 3.2085V14.7127C20.1896 15.0793 20.0521 15.4002 19.7771 15.6752C19.5021 15.9502 19.1812 16.0877 18.8146 16.0877H7.31042ZM4.90417 20.1439C4.52222 20.1897 4.18229 20.1019 3.88438 19.8804C3.58646 19.6589 3.41458 19.3571 3.36875 18.9752L1.90208 7.56266C1.85625 7.18073 1.94792 6.83698 2.17708 6.53141C2.40625 6.22584 2.71181 6.05016 3.09375 6.00433L4.56042 5.84391V15.171C4.56042 15.8127 4.78193 16.355 5.225 16.7981C5.66807 17.2411 6.21042 17.4627 6.85208 17.4627H18.4937C18.4937 17.7682 18.3983 18.0318 18.2073 18.2533C18.0163 18.4748 17.7681 18.6008 17.4625 18.6314L4.90417 20.1439ZM13.0625 13.6585C13.6431 13.6279 14.1969 13.4981 14.724 13.2689C15.251 13.0397 15.7208 12.7342 16.1333 12.3522C16.5 12.0162 16.8094 11.6342 17.0615 11.2064C17.3135 10.7787 17.4854 10.3203 17.5771 9.83141C17.6077 9.70918 17.5809 9.60225 17.4969 9.51058C17.4129 9.41891 17.3097 9.38073 17.1875 9.396C16.6986 9.45709 16.2212 9.59459 15.7552 9.8085C15.2892 10.0224 14.8729 10.2974 14.5063 10.6335C14.0785 11.0307 13.7347 11.4852 13.475 11.997C13.2153 12.5089 13.0778 13.0627 13.0625 13.6585ZM13.0625 13.6585C13.0472 13.0627 12.9097 12.5089 12.65 11.997C12.3903 11.4852 12.0465 11.0307 11.6188 10.6335C11.2521 10.2974 10.8358 10.0224 10.3698 9.8085C9.9038 9.59459 9.4264 9.45709 8.9375 9.396C8.81526 9.38073 8.71214 9.41891 8.62813 9.51058C8.54411 9.60225 8.51735 9.70918 8.54792 9.83141C8.63958 10.3203 8.81146 10.7787 9.06354 11.2064C9.31563 11.6342 9.625 12.0162 9.99167 12.3522C10.4042 12.7342 10.874 13.0397 11.401 13.2689C11.9281 13.4981 12.4819 13.6279 13.0625 13.6585Z" fill="black"/>
</svg>
