<svg width="22" height="22" viewBox="0 0 22 22" fill="none" xmlns="http://www.w3.org/2000/svg">
<path d="M20.1667 4.44595V15.3451C20.1667 16.2343 19.4425 17.0501 18.5533 17.1601L18.2692 17.1968C16.7658 17.3985 14.6483 18.0218 12.9433 18.7368C12.3475 18.9843 11.6875 18.5351 11.6875 17.8843V5.13345C11.6875 4.79429 11.88 4.48262 12.1825 4.31762C13.86 3.41012 16.3992 2.60345 18.1225 2.45679H18.1775C19.2775 2.45679 20.1667 3.34595 20.1667 4.44595Z" fill="currentColor"/>
<path d="M9.81755 4.31762C8.14005 3.41012 5.60089 2.60345 3.87755 2.45679H3.81339C2.71339 2.45679 1.82422 3.34595 1.82422 4.44595V15.3451C1.82422 16.2343 2.54839 17.0501 3.43755 17.1601L3.72172 17.1968C5.22505 17.3985 7.34255 18.0218 9.04755 18.7368C9.64339 18.9843 10.3034 18.5351 10.3034 17.8843V5.13345C10.3034 4.78512 10.1201 4.48262 9.81755 4.31762ZM4.58339 7.09512H6.64589C7.02172 7.09512 7.33339 7.40679 7.33339 7.78262C7.33339 8.16762 7.02172 8.47012 6.64589 8.47012H4.58339C4.20755 8.47012 3.89589 8.16762 3.89589 7.78262C3.89589 7.40679 4.20755 7.09512 4.58339 7.09512ZM7.33339 11.2201H4.58339C4.20755 11.2201 3.89589 10.9176 3.89589 10.5326C3.89589 10.1568 4.20755 9.84512 4.58339 9.84512H7.33339C7.70922 9.84512 8.02089 10.1568 8.02089 10.5326C8.02089 10.9176 7.70922 11.2201 7.33339 11.2201Z" fill="currentColor"/>
</svg>
