<svg width="20" height="20" viewBox="0 0 20 20" fill="none" xmlns="http://www.w3.org/2000/svg">
<path d="M15.0833 14.7917H4.91666C2.98333 14.7917 1.875 13.6834 1.875 11.7501V1.66675C1.875 1.32508 2.15833 1.04175 2.5 1.04175H17.5C17.8417 1.04175 18.125 1.32508 18.125 1.66675V11.7501C18.125 13.6834 17.0167 14.7917 15.0833 14.7917ZM3.125 2.29175V11.7501C3.125 12.9918 3.67499 13.5417 4.91666 13.5417H15.075C16.3167 13.5417 16.8667 12.9918 16.8667 11.7501V2.29175H3.125Z" />
<path d="M18.3346 2.29175H1.66797C1.3263 2.29175 1.04297 2.00841 1.04297 1.66675C1.04297 1.32508 1.3263 1.04175 1.66797 1.04175H18.3346C18.6763 1.04175 18.9596 1.32508 18.9596 1.66675C18.9596 2.00841 18.6763 2.29175 18.3346 2.29175Z" />
<path d="M6.66591 18.9584C6.43258 18.9584 6.2159 18.8334 6.10757 18.6167C5.94923 18.3084 6.07426 17.9334 6.39092 17.7751L9.37424 16.2834V14.1667C9.37424 13.8251 9.65758 13.5417 9.99924 13.5417C10.3409 13.5417 10.6242 13.8251 10.6242 14.1667V16.6667C10.6242 16.9001 10.4909 17.1168 10.2742 17.2251L6.9409 18.8918C6.85757 18.9334 6.75758 18.9584 6.66591 18.9584Z" />
<path d="M13.3339 18.9583C13.2423 18.9583 13.1423 18.9333 13.059 18.8917L9.72562 17.225C9.41729 17.0667 9.29226 16.6916 9.44226 16.3833C9.6006 16.075 9.97561 15.95 10.2839 16.1L13.6173 17.7667C13.9256 17.925 14.0506 18.3 13.9006 18.6083C13.7839 18.8333 13.5589 18.9583 13.3339 18.9583Z" />
<path d="M6.2501 9.79157C6.0751 9.79157 5.89178 9.71658 5.76678 9.56658C5.54178 9.29991 5.58343 8.90824 5.85009 8.68324L8.47511 6.49157C8.71678 6.29157 9.02509 6.20824 9.31676 6.25824C9.61676 6.30824 9.87511 6.49155 10.0334 6.75822L10.9084 8.21655L13.3501 6.18324C13.6168 5.96658 14.0084 5.99989 14.2334 6.26656C14.4584 6.53322 14.4168 6.92489 14.1501 7.14989L11.5251 9.34156C11.2834 9.54156 10.9751 9.62489 10.6834 9.57489C10.3834 9.52489 10.1251 9.34158 9.96676 9.07491L9.09177 7.61658L6.65011 9.64989C6.53344 9.74155 6.39177 9.79157 6.2501 9.79157Z" />
</svg>
