<svg width="15" height="17" viewBox="0 0 15 17" fill="none" xmlns="http://www.w3.org/2000/svg">
<path d="M12.5 11.7333C11.8667 11.7333 11.3 11.9833 10.8667 12.375L4.925 8.91667C4.96667 8.725 5 8.53333 5 8.33333C5 8.13333 4.96667 7.94167 4.925 7.75L10.8 4.325C11.25 4.74167 11.8417 5 12.5 5C13.8833 5 15 3.88333 15 2.5C15 1.11667 13.8833 0 12.5 0C11.1167 0 10 1.11667 10 2.5C10 2.7 10.0333 2.89167 10.075 3.08333L4.2 6.50833C3.75 6.09167 3.15833 5.83333 2.5 5.83333C1.11667 5.83333 0 6.95 0 8.33333C0 9.71667 1.11667 10.8333 2.5 10.8333C3.15833 10.8333 3.75 10.575 4.2 10.1583L10.1333 13.625C10.0917 13.8 10.0667 13.9833 10.0667 14.1667C10.0667 15.5083 11.1583 16.6 12.5 16.6C13.8417 16.6 14.9333 15.5083 14.9333 14.1667C14.9333 12.825 13.8417 11.7333 12.5 11.7333ZM12.5 1.66667C12.9583 1.66667 13.3333 2.04167 13.3333 2.5C13.3333 2.95833 12.9583 3.33333 12.5 3.33333C12.0417 3.33333 11.6667 2.95833 11.6667 2.5C11.6667 2.04167 12.0417 1.66667 12.5 1.66667ZM2.5 9.16667C2.04167 9.16667 1.66667 8.79167 1.66667 8.33333C1.66667 7.875 2.04167 7.5 2.5 7.5C2.95833 7.5 3.33333 7.875 3.33333 8.33333C3.33333 8.79167 2.95833 9.16667 2.5 9.16667ZM12.5 15.0167C12.0417 15.0167 11.6667 14.6417 11.6667 14.1833C11.6667 13.725 12.0417 13.35 12.5 13.35C12.9583 13.35 13.3333 13.725 13.3333 14.1833C13.3333 14.6417 12.9583 15.0167 12.5 15.0167Z" fill="currentColor"/>
</svg>
