<svg width="24" height="24" viewBox="0 0 24 24" fill="none" xmlns="http://www.w3.org/2000/svg">
<rect className="stroke-black dark:stroke-white" x="0.5" y="0.5" width="23" height="23" rx="7.5" stroke="#EBEBEB"/>
<path className="fill-black dark:fill-white" d="M10.7197 7.71967C11.0126 7.42678 11.4873 7.42678 11.7802 7.71967C12.0731 8.01256 12.0731 8.48732 11.7802 8.78022L8.56049 11.9999L11.7802 15.2197C12.0731 15.5126 12.0731 15.9873 11.7802 16.2802C11.4873 16.5731 11.0126 16.5731 10.7197 16.2802L6.96967 12.5302C6.67678 12.2373 6.67678 11.7626 6.96967 11.4697L10.7197 7.71967ZM15.9697 7.71967C16.2626 7.42678 16.7373 7.42678 17.0302 7.71967C17.3231 8.01256 17.3231 8.48732 17.0302 8.78022L13.8105 11.9999L17.0302 15.2197C17.3231 15.5126 17.3231 15.9873 17.0302 16.2802C16.7373 16.5731 16.2626 16.5731 15.9697 16.2802L12.2197 12.5302C11.9268 12.2373 11.9268 11.7626 12.2197 11.4697L15.9697 7.71967Z" fill="white"/>
</svg>
